<?xml version="1.0" encoding="utf-8"?>
<!-- Generator: Adobe Illustrator 15.0.0, SVG Export Plug-In . SVG Version: 6.00 Build 0)  -->
<!DOCTYPE svg PUBLIC "-//W3C//DTD SVG 1.1//EN" "http://www.w3.org/Graphics/SVG/1.1/DTD/svg11.dtd">
<svg version="1.1" id="Ebene_1" xmlns="http://www.w3.org/2000/svg" xmlns:xlink="http://www.w3.org/1999/xlink" x="0px" y="0px"
	 width="545.902px" height="337.379px" viewBox="0 0 545.902 337.379" enable-background="new 0 0 545.902 337.379"
	 xml:space="preserve">
<g>
	<defs>
		<rect id="SVGID_1_" width="545.902" height="337.379"/>
	</defs>
	<clipPath id="SVGID_2_">
		<use xlink:href="#SVGID_1_"  overflow="visible"/>
	</clipPath>
	<path clip-path="url(#SVGID_2_)" fill="#FFFFFF" d="M204.507,337.379h25.374v-45.346l-25.374-21.349V337.379z M269.568,293.436
		h21.243l5.742-4.822v-17.896L269.568,293.436z M267.514,30.712l-16.981,17.867l-45.946-48.35l58.31,25.622L267.514,30.712z
		 M515.091,125.165V0l30.812,18.508V87.08C538.333,94.958,522.506,114.212,515.091,125.165 M545.902,150.14v187.239h-30.812V200.385
		C521.674,186.141,537.555,161.136,545.902,150.14 M385.188,337.379c-0.994-8.412-2.204-20.562-2.204-31.257
		c0-6.632,0.895-33.296,0.895-54.798c0-18.121-3.914-50.343-3.914-67.856c-0.01-10.521,0.773-24.793-0.386-29.826
		c8.391-5.427,15.727-8.916,38.87-22.921c7.496-4.533,21.801-12.213,21.801-21.443c0-4.097-1.082-6.778-6.911-11.556
		c-4.06-3.245-8.424-4.193-13.362-4.193c-11.792,0-17.126,11.816-27.016,17.871c-15.08,9.218-23.077,13.778-26.169,15.491
		c-1.237-0.561-6.366-3.614-14.627-3.614c-8.614,0-18.654,3.872-18.654,15.073c-0.008,5.142,1.634,10.696-5.23,14.304
		c-3.842,2.433-22.607,13.147-42.572,25.199c-16.841,10.163-24.684,9.346-31.786,13.619c-6.564,3.962-8.276,8.893-8.276,13.167
		c0,3.811,2.399,8.594,3.245,9.661c4.52,5.782,8.581,8.923,15.703,8.923c12.062,0,22.098-10.553,40.729-23.798
		c11.62-8.271,22.277-16.86,28.514-16.86c5.581,0,9.454,4.204,9.454,21.504c0,57.859-3.516,67.038-3.516,107.185
		c0,7.217,0.272,20.569,0.52,26.126H309.61v-94.783l-59.077,49.773l-59.077-49.773v94.783H0V0h186.387l64.146,67.515L314.674,0
		h187.359v144.267c-5.924,9.145-24.031,40.157-36.221,71.814c-3.986,10.341-5.825,17.819-11.082,17.819
		c-5.769,0-6.25-5.684-6.793-10.8c-1.178-11.088-3.663-31.805-4.815-39.434c-2.235-14.761-5.161-30.372-21.639-30.372
		c-12.197,0-24.996,6.679-24.996,24.949c0,10.331,5.229,28.304,14.185,51.942c3.529,9.321,22.298,58.521,25,65.631
		c4.953,13.073,11.838,16.633,22.556,16.633c13.718,0,18.463-5.042,24.103-24.284c4.802-16.401,12.947-43.137,19.703-59.885
		c0-0.017,0,0,0,0v109.098H385.188z"/>
</g>
</svg>
