<?xml version="1.0" standalone="no"?>
<!DOCTYPE svg PUBLIC "-//W3C//DTD SVG 1.1//EN" "http://www.w3.org/Graphics/SVG/1.1/DTD/svg11.dtd" >
<svg xmlns="http://www.w3.org/2000/svg">
<metadata>Generated by IcoMoon</metadata>
<defs>
<font id="mtvPlayIcons" horiz-adv-x="512">
<font-face units-per-em="512" ascent="480" descent="-32" />
<missing-glyph horiz-adv-x="512" />
<glyph unicode="&#x20;" d="" horiz-adv-x="256" />
<glyph unicode="&#xe600;" d="M256 416c-131.264 0-256-148.736-256-192s124.736-192 256-192c131.264 0 256 148.736 256 192s-124.736 192-256 192v0zM237.167 285.184c5.954 1.831 12.279 2.816 18.833 2.816 35.346 0 64-28.654 64-64s-28.654-64-64-64c-35.346 0-64 28.654-64 64 0 6.554 0.986 12.879 2.816 18.834 4.020-1.82 8.484-2.833 13.184-2.833 17.673 0 32 14.327 32 32 0 4.7-1.013 9.163-2.833 13.184zM256 96c-70.688 0-128 57.312-128 128s57.312 128 128 128c70.688 0 128-57.312 128-128s-57.312-128-128-128z" />
<glyph unicode="&#xe601;" d="M181.333 212.389v-232.462c0-9.878 6.692-14.547 14.939-10.432l268.789 134.111c8.25 4.116 14.938 15.463 14.938 25.339v232.462c0 9.878-6.692 14.546-14.938 10.432l-268.789-134.111c-8.25-4.117-14.939-15.463-14.939-25.339zM47.090 72.853c-8.329-4.148-15.090 0.558-15.090 10.517v234.366c0 9.957 6.756 21.397 15.090 25.547l271.505 135.209c8.329 4.148 15.089-0.558 15.089-10.517v-16.353c0-5.902-4.32-12.838-9.604-15.469l-239.28-119.162c-8.334-4.15-15.090-15.589-15.090-25.547v-196.76c0-5.836-4.362-12.738-9.462-15.279l-13.159-6.553zM121.8 24.617c-8.354-4.096-15.133 0.551-15.133 10.385v231.432c0 9.832 6.775 21.129 15.133 25.227l272.294 133.517c8.354 4.096 15.134-0.551 15.134-10.385v-15.995c0-5.913-4.332-12.831-9.632-15.43l-239.976-117.67c-8.358-4.098-15.133-15.394-15.133-25.226v-194.012c0-5.92-4.374-12.864-9.489-15.372l-13.197-6.471z" />
<glyph unicode="&#xe602;" d="M0 96.599v318.801c0 12.12 13.854 21.933 30.963 21.933h450.073c17.11 0 30.964-9.813 30.964-21.933v-318.801c0-12.12-13.853-21.933-30.964-21.933h-450.073c-17.11 0-30.963 9.813-30.963 21.933v0zM44.267 405.334c-6.772 0-12.267-4.415-12.267-9.856v-278.956c0-5.44 5.495-9.856 12.267-9.856h423.466c6.772 0 12.267 4.415 12.267 9.856v278.956c0 5.44-5.495 9.856-12.267 9.856h-423.466zM335.421 169.283c0 4.19 0.56 21.034 0.56 34.617 0 11.447-2.447 31.802-2.447 42.866-0.006 6.646 0.483 15.661-0.241 18.842 5.247 3.428 9.832 5.632 24.3 14.479 4.686 2.864 13.628 7.715 13.628 13.546 0 2.588-0.675 4.282-4.32 7.3-2.538 2.051-5.267 2.649-8.353 2.649-7.372 0-10.707-7.464-16.889-11.288-9.427-5.824-14.427-8.704-16.36-9.786-0.774 0.354-3.979 2.284-9.144 2.284-5.385 0-11.661-2.447-11.661-9.522-0.005-3.248 1.022-6.757-3.27-9.036-2.402-1.537-14.133-8.306-26.615-15.919-10.527-6.421-15.43-5.904-19.87-8.604-4.103-2.503-5.173-5.618-5.173-8.318 0-2.407 1.5-5.429 2.029-6.103 2.826-3.653 5.364-5.636 9.817-5.636 7.539 0 13.814 6.667 25.461 15.034 7.264 5.225 13.927 10.65 17.825 10.65 3.489 0 5.91-2.655 5.91-13.584 0-36.551-2.198-42.349-2.198-67.71 0-4.559 0.171-12.994 0.325-16.505h-19.183v59.877l-36.931-31.444-36.933 31.443v-59.877h-119.688v213.13h116.519l40.101-42.651 40.098 42.651h123.282v-91.137c-3.704-5.778-21.178-25.368-28.8-45.366-2.492-6.533-3.642-11.257-6.928-11.257-3.606 0-3.908 3.591-4.247 6.822-0.736 7.005-2.291 20.091-3.011 24.911-1.396 9.326-3.226 19.188-13.527 19.188-7.625 0-15.625-4.22-15.625-15.762 0-6.526 3.269-17.88 8.868-32.813 2.205-5.889 13.94-36.969 15.629-41.461 3.096-8.259 7.4-10.508 14.1-10.508 8.575 0 11.541 3.185 15.067 15.341 3.002 10.361 14.25 27.25 18.473 37.831 0 0.010 0-68.919 0-68.919h-79.202c-0.622 5.314-1.378 12.99-1.378 19.745zM112.088 42.666c-8.885 0-16.088-7.102-16.088-16v0c0-8.837 7.132-16 16.088-16h287.824c8.885 0 16.088 7.102 16.088 16v0c0 8.837-7.132 16-16.088 16h-287.824z" />
<glyph unicode="&#xe603;" d="M467.655 67.777l-236.191 239.736c-11.357 11.525-17.207 27.555-15.966 43.808 2.345 30.788-8.078 62.389-31.278 85.936-30.198 30.651-73.838 39.332-111.659 26.057l68.665-69.695c1.576-27.191-39.844-69.229-66.631-67.63l-68.664 69.694c-13.079-38.387-4.527-82.683 25.671-113.334 23.199-23.548 54.334-34.124 84.667-31.744 16.026 1.259 31.793-4.668 43.161-16.204l236.194-239.736c19.891-20.19 52.139-20.19 72.031 0 19.891 20.19 19.891 52.924 0 73.113v0zM429.156 13.069c-11.592 0-20.993 9.538-20.993 21.308 0 11.766 9.4 21.307 20.993 21.307s20.993-9.539 20.993-21.307c0-11.769-9.401-21.308-20.993-21.308v0zM281.351 309.837l121.789 123.615c24.903 25.277 65.279 25.277 90.182 0s24.903-66.257 0-91.534l-121.789-123.615-22.081 22.411 116.26 118.003c3.59 3.642 3.59 9.546 0 13.19-3.587 3.64-9.405 3.64-12.995-0.002l-116.26-118.004-18.903 19.186 116.257 118.005c3.59 3.642 3.59 9.546 0.002 13.188s-9.405 3.643-12.995 0l-116.26-118.002-23.208 23.557zM217.369 122.632l-89.879-91.228c-4.873-4.945-8.974-10.613-12.165-16.813l-6.459-12.55-44.769-23.21-17.712 17.978 21.901 46.424 12.364 6.554c6.108 3.236 11.694 7.401 16.564 12.348l89.879 91.226 30.274-30.729z" />
<glyph unicode="&#xe604;" d="M28.968 202.499c88.17-3.882 158.962-74.662 162.862-162.827v0c0.112-0.766 0.169-1.55 0.169-2.347v-10.649c0-8.771-7.163-16.009-16-16.009-8.898 0-16 7.168-16 16.009v5.325c0 76.584-62.083 138.666-138.667 138.666h-5.325c-8.771 0-16.009 7.163-16.009 16 0 8.898 7.168 16 16.009 16h10.649c0.784 0 1.555-0.057 2.311-0.168v0zM30.244 127.592c45.888-4.224 82.424-40.742 86.675-86.621v0c0.27-1.171 0.413-2.392 0.413-3.646v-10.649c0-8.771-7.163-16.009-16-16.009-8.898 0-16 7.168-16 16.009v5.325c0 35.346-28.654 64-64 64h-5.325c-8.771 0-16.009 7.163-16.009 16 0 8.898 7.168 16 16.009 16h10.649c1.231 0 2.431-0.141 3.587-0.408v0zM342.955 42.666h140.016c16.041 0 29.029 10.678 29.029 23.868v346.931c0 13.189-12.988 23.868-29.029 23.868h-421.943c-16.041 0-29.029-10.678-29.029-23.868v-141.497c0-8.819 7.102-15.969 16-15.969 8.837 0 16 7.165 16 15.969v122.453c0 6.023 5.101 10.911 11.386 10.911h393.034c6.285 0 11.385-4.888 11.385-10.911v-308.844c0-6.023-5.101-10.911-11.385-10.911h-196.468c-8.81 0-15.952-7.102-15.952-16 0-8.837 7.248-16 15.952-16h71.003zM21.334 10.666c11.782 0 21.334 9.551 21.334 21.334s-9.552 21.334-21.334 21.334c-11.782 0-21.334-9.551-21.334-21.334s9.552-21.334 21.334-21.334z" />
<glyph unicode="&#xe605;" d="M256-32c-141.385 0-256 114.615-256 256s114.615 256 256 256c141.385 0 256-114.615 256-256s-114.615-256-256-256zM256 0c123.712 0 224 100.288 224 224s-100.288 224-224 224c-123.712 0-224-100.288-224-224s100.288-224 224-224zM364.837 239.619c11.327-7.001 11.327-24.253 0-31.218l-166.847-102.787c-7.369-4.548-16.657 1.065-16.657 10.070v216.637c0 9.005 9.288 14.617 16.657 10.070l166.847-102.769z" />
<glyph unicode="&#xe606;" d="M256-32c-141.385 0-256 114.615-256 256s114.615 256 256 256c141.385 0 256-114.615 256-256s-114.615-256-256-256zM256 0c123.712 0 224 100.288 224 224s-100.288 224-224 224c-123.712 0-224-100.288-224-224s100.288-224 224-224zM186.667 320c-8.837 0-16-7.061-16-16.039v-159.921c0-8.858 7.102-16.039 16-16.039 8.837 0 16 7.061 16 16.039v159.921c0 8.858-7.102 16.040-16 16.040zM325.334 320c-8.837 0-16-7.061-16-16.039v-159.921c0-8.858 7.102-16.039 16-16.039 8.837 0 16 7.061 16 16.039v159.921c0 8.858-7.102 16.040-16 16.040z" />
<glyph unicode="&#xe607;" d="M4.689 432.694c2.88 2.873 6.852 4.639 11.238 4.639h128.148c8.845 0 15.927-7.163 15.927-16 0-8.898-7.131-16-15.927-16h-112.073v-112.074c0-8.845-7.163-15.927-16-15.927-8.898 0-16 7.131-16 15.927v128.148c0 4.41 1.781 8.382 4.662 11.256zM507.312 432.694c-2.88 2.873-6.852 4.639-11.238 4.639h-128.147c-8.845 0-15.926-7.163-15.926-16 0-8.898 7.13-16 15.926-16h112.073v-112.074c0-8.845 7.163-15.927 16-15.927 8.898 0 16 7.131 16 15.927v128.148c0 4.41-1.781 8.382-4.662 11.256l-0.026 0.031zM4.689 15.306c2.88-2.873 6.852-4.639 11.238-4.639h128.148c8.845 0 15.927 7.163 15.927 16 0 8.898-7.131 16-15.927 16h-112.073v112.074c0 8.845-7.163 15.926-16 15.926-8.898 0-16-7.13-16-15.926v-128.148c0-4.41 1.781-8.382 4.662-11.256l0.027-0.031zM507.312 15.306c-2.88-2.873-6.852-4.639-11.238-4.639h-128.147c-8.845 0-15.926 7.163-15.926 16 0 8.898 7.13 16 15.926 16h112.073v112.074c0 8.845 7.163 15.926 16 15.926 8.898 0 16-7.13 16-15.926v-128.148c0-4.41-1.781-8.382-4.662-11.256l-0.026-0.031z" />
<glyph unicode="&#xe608;" d="M0 411.531v-375.060c0-14.259 13.854-25.803 30.963-25.803h450.073c17.11 0 30.964 11.544 30.964 25.803v375.060c0 14.258-13.853 25.803-30.964 25.803h-450.073c-17.11 0-30.963-11.545-30.963-25.803v0zM44.267 42.666c-6.772 0-12.267 5.361-12.267 11.967v338.732c0 6.606 5.495 11.967 12.267 11.967h423.466c6.772 0 12.267-5.361 12.267-11.967v-338.732c0-6.606-5.495-11.967-12.267-11.967h-423.466zM342.255 277.333c8.135 0 12.601-9.984 7.428-16.618l-79.913-102.378c-5.942-7.616-21.782-7.616-27.724 0l-79.832 102.389c-5.174 6.624-0.708 16.608 7.428 16.608h172.613z" />
<glyph unicode="&#xe609;" d="M0 36.469v375.060c0 14.259 13.854 25.803 30.963 25.803h450.073c17.11 0 30.964-11.544 30.964-25.803v-375.060c0-14.259-13.853-25.803-30.964-25.803h-450.073c-17.11 0-30.963 11.545-30.963 25.803v0zM44.267 405.334c-6.772 0-12.267-5.362-12.267-11.967v-338.732c0-6.606 5.495-11.967 12.267-11.967h423.466c6.772 0 12.267 5.361 12.267 11.967v338.732c0 6.606-5.495 11.967-12.267 11.967h-423.466zM169.744 170.666c-8.135 0-12.601 9.984-7.428 16.618l79.912 102.379c5.942 7.616 21.782 7.616 27.724 0l79.832-102.389c5.174-6.624 0.707-16.608-7.428-16.608h-172.613z" />
<glyph unicode="&#xe60a;" d="M351.353 223.353l-105.714 105.714c-6.099 6.099-6.052 15.893 0.018 21.962 6.112 6.112 15.903 6.078 21.963 0.018l105.714-105.714 105.714 105.714c6.060 6.060 15.851 6.094 21.962-0.018 6.070-6.069 6.117-15.863 0.018-21.962l-105.714-105.714 105.714-105.714c6.099-6.099 6.051-15.892-0.018-21.962-6.112-6.112-15.902-6.078-21.962-0.018l-105.714 105.714-105.714-105.714c-6.060-6.060-15.851-6.094-21.963 0.018-6.070 6.070-6.117 15.863-0.018 21.962l105.714 105.714z" />
<glyph unicode="&#xe60b;" d="M276.887 224l48.036-48.036c5.732-5.732 5.804-15.156 0.036-20.923-5.808-5.808-15.135-5.752-20.923 0.036l-48.036 48.036-48.036-48.036c-5.787-5.788-15.115-5.844-20.923-0.036-5.768 5.767-5.696 15.191 0.036 20.923l48.036 48.036-48.036 48.036c-5.732 5.732-5.804 15.156-0.036 20.923 5.808 5.808 15.136 5.752 20.923-0.036l48.036-48.036 48.036 48.036c5.788 5.788 15.115 5.844 20.923 0.036 5.767-5.767 5.696-15.191-0.036-20.923l-48.036-48.036zM256 96c70.692 0 128 57.308 128 128s-57.308 128-128 128c-70.692 0-128-57.308-128-128s57.308-128 128-128z" />
<glyph unicode="&#xe60c;" d="M169.744 288c-8.135 0-12.601-9.984-7.428-16.619l79.912-102.378c5.942-7.616 21.782-7.616 27.724 0l79.832 102.389c5.174 6.624 0.707 16.608-7.428 16.608h-172.613z" />
<glyph unicode="&#xe60d;" d="M505.921 224c0.13-3.387-1.108-6.826-3.728-9.447l-101.224-101.224c-4.945-4.945-12.911-4.998-17.868-0.041-4.923 4.923-4.95 12.877 0.041 17.868l92.844 92.844-92.844 92.844c-4.99 4.99-4.964 12.945-0.041 17.868 4.957 4.957 12.923 4.905 17.868-0.041l101.224-101.224c2.621-2.621 3.858-6.060 3.728-9.447z" />
<glyph unicode="&#xe60e;" d="M297.93 159.443c-17.7-13.058-39.579-20.776-63.262-20.776-58.911 0-106.666 47.757-106.666 106.666s47.757 106.666 106.666 106.666c58.911 0 106.666-47.757 106.666-106.666 0-23.683-7.719-45.563-20.776-63.262l63.967-63.967c6.154-6.154 6.215-16.346-0.034-22.594-6.292-6.292-16.364-6.264-22.594-0.034l-63.967 63.967zM234.667 170.666c41.237 0 74.667 33.43 74.667 74.666s-33.43 74.666-74.666 74.666c-41.238 0-74.666-33.43-74.666-74.666s33.429-74.666 74.666-74.666z" />
<glyph unicode="&#xe60f;" d="M224 160c-17.664 0-32-14.336-32-32s14.336-32 32-32c17.664 0 32 14.336 32 32s-14.336 32-32 32v0zM320 160c-17.664 0-32-14.336-32-32s14.336-32 32-32c17.664 0 32 14.336 32 32s-14.336 32-32 32v0zM368 320h-174.88l-4.32 16c-3.296 14.368-12.304 16-16.544 16h-28.256c-8.832 0-16-7.168-16-16s7.168-16 16-16h16l32-115.248c3.008-9.504 10.128-12.752 16-12.752h128c6.624 0 12.496 3.376 16 12.496l27.44 83.504c2.432 7.744 4.56 12 4.56 16 0 10.624-9.12 16-16 16v0zM324.72 224h-104.848l-17.776 64h143.664l-21.040-64z" />
<glyph unicode="&#xe610;" d="M146.542 250.881c-4.928-3.43-7.875-9.172-7.875-15.321l0.121-121.473c0-9.989 7.796-18.087 17.426-18.087h221.148c9.63 0 17.426 8.099 17.426 18.087l-0.121 121.45c0 6.161-2.959 11.914-7.909 15.345l-110.878 76.806c-5.738 3.979-13.207 3.967-18.933-0.012l-110.406-76.795zM158.792 231.814c-2.351 1.692-2.328 5.309 0.034 6.978l102.879 72.349c2.858 2.007 6.615 2.019 9.473 0.012l103.318-72.373c2.373-1.668 2.396-5.274 0.056-6.978l-97.94-70.762c-5.839-4.224-13.601-4.236-19.451-0.024l-98.368 70.797z" />
<glyph unicode="&#xe611;" d="M420.043 245.345v-0.005l-85.957-61.162 33.11-99.52c0.522-1.548 0.805-3.205 0.805-4.921 0-8.692-7.163-15.738-16-15.738-3.504 0-6.741 1.118-9.376 2.99v-0.005l-86.624 61.634-86.63-61.629c-2.635-1.873-5.867-2.99-9.37-2.99-8.838 0-16 7.045-16 15.738 0 1.716 0.282 3.373 0.8 4.921l33.114 99.52-85.957 61.167c-4.010 2.859-6.624 7.507-6.624 12.753 0 8.687 7.162 15.738 16 15.738h106.41l32.954 99.048c2.011 6.432 8.096 11.116 15.302 11.116 7.2 0 13.291-4.684 15.296-11.116l32.954-99.048h106.416c8.837 0 16-7.050 16-15.738 0-5.246-2.613-9.894-6.624-12.753z" />
<glyph unicode="&#xe612;" d="M320 149.334v32.049c0 5.757 4.776 10.618 10.666 10.618 5.932 0 10.666-4.753 10.666-10.618v-32.049h32.049c5.757 0 10.618-4.776 10.618-10.666 0-5.932-4.753-10.666-10.618-10.666h-32.049v-32.049c0-5.757-4.776-10.618-10.666-10.618-5.932 0-10.666 4.753-10.666 10.618v32.049h-32.049c-5.757 0-10.618 4.776-10.618 10.666 0 5.932 4.753 10.666 10.618 10.666h32.049zM237.493 115.451l-68.117-48.466c-2.64-1.868-5.872-2.985-9.376-2.985-8.838 0-16 7.045-16 15.738 0 1.716 0.282 3.373 0.8 4.921l33.114 99.52-85.957 61.162c-4.010 2.864-6.624 7.512-6.624 12.758 0 8.687 7.162 15.738 16 15.738h106.41l32.954 99.048c2.011 6.432 8.096 11.116 15.302 11.116 7.2 0 13.29-4.684 15.296-11.116l32.954-99.048h106.416c8.837 0 16-7.050 16-15.738 0-5.246-2.613-9.894-6.624-12.753l-36.913-26.267c-15.079 9.858-33.101 15.589-52.461 15.589-53.019 0-96.001-42.98-96.001-96 0-8.005 0.98-15.782 2.826-23.216v0zM330.668 213.334c-41.238 0-74.668-33.428-74.668-74.666s33.43-74.667 74.668-74.667 74.666 33.428 74.666 74.667c0 41.238-33.428 74.666-74.666 74.666z" />
<glyph unicode="&#xe613;" d="M326.235 255.722v24.651c0 37.639-29.679 70.469-68.182 71.595-39.836 1.161-72.505-30.048-72.505-68.721v-27.49c0-4.294-3.506-7.416-7.852-7.99-9.989-1.314-17.697-9.68-17.697-19.817v-111.957c0-11.041 9.161-19.993 20.458-19.993h151.083c11.298 0 20.458 8.952 20.458 19.993v111.957c0 10.078-8.008 18.409-17.997 19.805-4.31 0.599-7.768 3.708-7.768 7.967zM257.657 319.468c19.69-0.997 34.445-18.268 34.445-37.522v-25.285c0-4.81-3.998-8.706-8.909-8.706h-54.976c-4.923 0-8.909 3.895-8.909 8.706v27.291c0 20.286 17.361 36.595 38.347 35.516z" />
<glyph unicode="&#xe614;" d="M210.691 96h-29.386c-11.75 0-21.305 9.575-21.305 21.386v213.228c0 11.818 9.539 21.386 21.305 21.386h112.058c8.805 0 15.969-7.163 15.969-16 0-8.898-7.149-16-15.969-16h-96.983c-2.418 0-4.381-2.838-4.381-6.335v-179.329c0-3.497 1.963-6.336 4.381-6.336h99.125c8.842 0 16.022-7.163 16.022-16 0-8.898-7.173-16-16.022-16h-84.815zM298.713 254.106c0-4.298 3.542-8.761 7.909-8.761h36.901c4.678 0 8.476-3.739 8.476-8.343v-26.324c0-4.604-3.799-8.329-8.476-8.329h-36.901c-4.366 0-7.909-3.914-7.909-8.226v-17.71c0-4.87-5.772-7.518-9.572-4.404l-62.303 46.025c-3.786 3.101-3.786 8.822 0 11.922l62.303 46.038c3.799 3.113 9.572 0.452 9.572-4.417v-17.471z" />
<glyph unicode="&#xe615;" d="M374.901 115.5c-5.588 26.103-19.8 39.716-39.415 52.109-5.447 3.452-12.271 6.188-19.491 9.101-13.409 5.385-28.61 11.485-31.806 21.584-2.092 6.62 0.618 15.793 8.156 27.418 23.005 37.014 27.118 68.811 12.217 94.534-11.52 19.889-31.259 31.753-52.939 31.753-21.619 0-41.419-11.864-52.939-31.753-14.91-25.724-10.796-57.52 12.297-94.667 7.433-11.467 10.143-20.639 8.051-27.242-3.204-10.116-18.441-16.225-31.876-21.619-7.248-2.913-14.089-5.649-19.544-9.101-19.624-12.403-33.828-26.015-39.415-52.118-0.962-4.502 1.695-8.986 6.108-10.302 1.244-0.371 31.559-9.146 117.284-9.199h0.009c85.725 0.053 115.951 8.827 117.195 9.199 4.414 1.315 7.062 5.8 6.108 10.302z" />
<glyph unicode="&#xe616;" d="M272 362.666v-154.627c0-8.978-7.163-16.039-16-16.039-8.898 0-16 7.181-16 16.039v154.627h-41.572c-5.423 0-8.401 6.656-4.952 11.072l53.221 68.26c3.962 5.077 14.521 5.077 18.483 0l53.275-68.252c3.45-4.423 0.471-11.079-4.952-11.079h-41.504zM146.692 320h-31.34c-10.694 0-19.352-8.659-19.352-19.352v-281.296c0-10.694 8.659-19.352 19.352-19.352h281.296c10.694 0 19.352 8.659 19.352 19.352v281.296c0 10.694-8.659 19.352-19.352 19.352h-71.264c-8.865 0-16.050-7.102-16.050-16 0-8.837 7.128-16 16.050-16h51.606c3.87 0 7.010-3.785 7.010-8.447v-239.105c0-4.663-3.14-8.447-7.010-8.447h-241.98c-3.869 0-7.010 3.784-7.010 8.447v239.105c0 4.663 3.141 8.447 7.010 8.447h51.606c8.864 0 16.050 7.102 16.050 16 0 8.837-7.129 16-16.050 16h-39.924z" />
<glyph unicode="&#xe617;" d="M9.287 224c-0.213 4.953 1.579 9.981 5.402 13.804l147.234 147.234c7.193 7.193 18.807 7.242 26.053-0.004 7.195-7.195 7.262-18.793 0.004-26.052l-134.982-134.983 134.982-134.982c7.259-7.259 7.191-18.857-0.004-26.053-7.245-7.245-18.859-7.197-26.053-0.003l-147.234 147.234c-3.823 3.824-5.614 8.851-5.402 13.804z" />
<glyph unicode="&#xe618;" d="M356.688 166.027c2.88 2.873 6.852 4.639 11.238 4.639h128.147c8.845 0 15.927-7.163 15.927-16 0-8.898-7.13-16-15.926-16h-112.074v-112.074c0-8.845-7.163-15.926-16-15.926-8.898 0-16 7.13-16 15.926v128.148c0 4.41 1.781 8.382 4.662 11.256zM155.311 166.027c-2.88 2.873-6.852 4.639-11.238 4.639h-128.148c-8.845 0-15.927-7.163-15.927-16 0-8.898 7.13-16 15.927-16h112.073v-112.074c0-8.845 7.163-15.926 16-15.926 8.898 0 16 7.13 16 15.926v128.148c0 4.41-1.781 8.382-4.662 11.256l-0.026 0.031zM356.688 281.972c2.88-2.873 6.852-4.639 11.238-4.639h128.147c8.845 0 15.927 7.163 15.927 16 0 8.898-7.13 16-15.926 16h-112.074v112.074c0 8.845-7.163 15.926-16 15.926-8.898 0-16-7.13-16-15.926v-128.147c0-4.41 1.781-8.382 4.662-11.256l0.026-0.031zM155.311 281.972c-2.88-2.873-6.852-4.639-11.238-4.639h-128.148c-8.845 0-15.927 7.163-15.927 16 0 8.898 7.13 16 15.927 16h112.073v112.074c0 8.845 7.163 15.926 16 15.926 8.898 0 16-7.13 16-15.926v-128.147c0-4.41-1.781-8.382-4.662-11.256l-0.026-0.031z" />
<glyph unicode="&#xe619;" d="M256-32c-141.384 0-256 114.616-256 256s114.616 256 256 256c141.384 0 256-114.616 256-256s-114.616-256-256-256v0zM256 448c-123.709 0-224-100.291-224-224 0-123.717 100.291-224 224-224s224 100.283 224 224c0 123.709-100.291 224-224 224v0zM368 312.008v0zM344 112v0zM234.768 170.43l-80.299 80.298c-5.724 5.724-15.274 5.799-21.119-0.046-5.885-5.885-5.865-15.3-0.046-21.119l89.403-89.403c0.416-0.55 0.875-1.077 1.377-1.579 5.845-5.844 15.284-5.881 21.165 0l148.007 148.007c5.844 5.844 5.885 15.28 0 21.165-5.844 5.844-15.284 5.881-21.165 0l-137.323-137.324zM368 135.992v0z" />
<glyph unicode="&#xe61a;" d="M256-32c-141.384 0-256 114.608-256 256 0 141.384 114.616 256 256 256s256-114.616 256-256c0-141.392-114.616-256-256-256zM233.248 219.124l-105.714 105.714c-6.099 6.099-6.052 15.892 0.018 21.963 6.112 6.112 15.903 6.078 21.963 0.018l105.714-105.714 105.714 105.714c6.060 6.060 15.851 6.094 21.962-0.018 6.070-6.070 6.117-15.863 0.018-21.963l-105.714-105.714 105.714-105.714c6.099-6.099 6.051-15.892-0.018-21.962-6.112-6.112-15.902-6.078-21.962-0.018l-105.714 105.714-105.714-105.714c-6.060-6.060-15.851-6.094-21.963 0.018-6.070 6.070-6.117 15.863-0.018 21.962l105.714 105.714zM256 448c-123.709 0-224-100.291-224-224 0-123.717 100.291-224 224-224s224 100.283 224 224c0 123.709-100.291 224-224 224z" />
<glyph unicode="&#xe61b;" d="M360.096 63.887c-0.932 7.993-2.094 19.543-2.094 29.677 0 6.294 0.878 31.587 0.878 52.002 0 17.177-3.678 47.721-3.678 64.355 0 9.982 0.733 23.511-0.381 28.291 7.885 5.197 14.719 8.493 36.358 21.82 7.031 4.252 20.413 11.525 20.413 20.249 0 3.957-0.999 6.466-6.481 10.962-3.774 3.12-7.866 4.026-12.514 4.026-11.022 0-15.993-11.261-25.2-16.957-14.115-8.743-21.596-13.072-24.486-14.68-1.173 0.554-5.955 3.414-13.681 3.414-8.055 0-17.45-3.605-17.45-14.292 0-4.844 1.515-10.119-4.903-13.577-3.58-2.356-21.099-12.51-39.793-23.926-15.737-9.654-23.101-8.831-29.689-12.877-6.162-3.81-7.745-8.454-7.745-12.553 0-3.59 2.239-8.091 3.030-9.115 4.203-5.515 8.040-8.508 14.675-8.508 11.293 0 20.659 10.012 38.104 22.604 10.839 7.813 20.804 15.977 26.629 15.977 5.197 0 8.822-4.002 8.822-20.385 0-54.887-3.267-63.63-3.267-101.712 0-6.823 0.265-19.464 0.483-24.793h-28.666v89.981l-55.246-47.256-55.261 47.256v-89.981h-178.955v320.113h174.221l59.994-64.1 59.975 64.1h175.143v-136.875c-5.545-8.66-22.45-38.126-33.844-68.146-3.76-9.786-5.482-16.908-10.399-16.908-5.371 0-5.8 5.397-6.346 10.252-1.067 10.546-3.421 30.191-4.459 37.43-2.123 13.969-4.85 28.791-20.254 28.791-11.389 0-23.386-6.279-23.386-23.628 0-9.806 4.923-26.88 13.281-49.362 3.31-8.767 20.838-55.474 23.376-62.185 4.604-12.456 11.075-15.786 21.084-15.786 12.803 0 17.257 4.726 22.546 22.996 4.478 15.586 12.103 40.933 18.401 56.827v-103.519h-109.237zM511.75 241.591v-177.704h-28.899v130.032c6.156 13.469 21.070 37.196 28.899 47.672v0zM482.851 265.238v118.762l28.899-17.589v-65.046c-7.113-7.479-21.906-25.734-28.899-36.127v0zM250.792 354.867l-15.93-16.928-43.059 45.845 54.629-24.304 4.36-4.614zM252.703 105.599h19.908l5.357 4.57v17.015l-25.265-21.586zM191.726 63.887h23.765v43.043l-23.765 20.263v-63.307z" />
<glyph unicode="&#xe61c;" d="M405.334 224c0-77.070-58.382-140.502-133.334-148.486v0 43.012c51.32 7.719 90.666 52.002 90.666 105.475s-39.346 97.755-90.666 105.475v134.433c0 8.983-7.163 16.092-16 16.092-139.011 0-252.143-110.798-255.904-248.899-0.064-0.583-0.097-1.176-0.097-1.776v-10.649c0-8.771 7.163-16.009 16-16.009 8.898 0 16 7.168 16 16.009v5.325c0 118.332 91.755 215.233 208 223.438v-42.8c-90.173-7.883-161.428-81.767-165.178-173.065v0c-0.103-0.734-0.155-1.485-0.155-2.248v-10.649c0-8.771 7.163-16.009 16-16.009 8.898 0 16 7.168 16 16.009v5.325c0 77.070 58.382 140.502 133.333 148.486v-43.012c-51.32-7.719-90.666-52.002-90.666-105.474s39.346-97.755 90.666-105.475v-134.433c0-8.983 7.163-16.092 16-16.092 139.010 0 252.143 110.798 255.904 248.899 0.064 0.583 0.096 1.176 0.096 1.776v10.649c0 8.771-7.163 16.009-16 16.009-8.898 0-16-7.167-16-16.009v-5.325c0-118.332-91.755-215.233-208-223.438v42.8c90.173 7.884 161.428 81.767 165.178 173.065 0.103 0.735 0.155 1.485 0.155 2.248v10.649c0 8.771-7.163 16.009-16 16.009-8.898 0-16-7.167-16-16.009v-5.325zM256 149.334c-41.238 0-74.666 33.43-74.666 74.666s33.429 74.666 74.666 74.666c41.238 0 74.666-33.43 74.666-74.666s-33.43-74.666-74.666-74.666z" />
<glyph unicode="&#xe61d;" d="M311.27-28.82v232.095h78.403l11.736 90.454h-90.138v57.75c0 26.189 7.317 44.034 45.112 44.034l48.204 0.022v80.901c-8.341 1.101-36.952 3.564-70.242 3.564-69.496 0-117.076-42.152-117.076-119.565v-66.706h-78.601v-90.454h78.601v-232.095h94.002z" />
<glyph unicode="&#xe61e;" d="M353.689 437.334c-57.884 0-104.81-47.834-104.81-106.834 0-8.374 0.927-16.526 2.713-24.346-87.106 4.455-164.333 46.988-216.029 111.626-9.021-15.779-14.188-34.132-14.188-53.712 0-37.063 18.503-69.764 46.626-88.924-17.18 0.555-33.342 5.36-47.472 13.364-0.008-0.447-0.009-0.893-0.009-1.345 0-51.764 36.128-94.945 84.075-104.758-8.796-2.44-18.055-3.747-27.612-3.747-6.755 0-13.319 0.671-19.719 1.916 13.337-42.444 52.043-73.334 97.906-74.196-35.87-28.654-81.063-45.733-130.166-45.733-8.459 0-16.802 0.507-25.002 1.491 46.382-30.313 101.475-47.998 160.663-47.998 192.783 0 298.202 162.794 298.202 303.975 0 4.63-0.103 9.238-0.303 13.819 20.476 15.065 38.245 33.882 52.297 55.307-18.796-8.497-38.994-14.242-60.197-16.823 21.64 13.221 38.26 34.158 46.084 59.106-20.25-12.244-42.681-21.135-66.555-25.928-19.118 20.765-46.358 33.739-76.503 33.739z" />
<glyph unicode="&#xe61f;" d="M170.56 448h170.879c23.528 0 42.56-19.142 42.56-42.753v-362.493c0-23.647-19.055-42.753-42.56-42.753h-170.879c-23.528 0-42.56 19.142-42.56 42.753v362.493c0 23.647 19.055 42.753 42.56 42.753zM181.281 416c-11.753 0-21.281-9.539-21.281-21.315v-288.038c0-11.772 9.522-21.315 21.281-21.315h149.438c11.753 0 21.281 9.539 21.281 21.315v288.038c0 11.772-9.522 21.315-21.281 21.315h-149.438zM256 21.334c11.782 0 21.334 9.551 21.334 21.334s-9.551 21.334-21.334 21.334c-11.782 0-21.334-9.551-21.334-21.334s9.552-21.334 21.334-21.334z" />
<glyph unicode="&#xe620;" d="M138.659 448h234.682c23.6 0 42.659-19.142 42.659-42.753v-362.493c0-23.647-19.099-42.753-42.659-42.753h-234.682c-23.6 0-42.659 19.142-42.659 42.753v362.493c0 23.647 19.099 42.753 42.659 42.753zM138.674 416c-5.895 0-10.674-4.674-10.674-10.627v-309.412c0-5.87 4.773-10.627 10.674-10.627h234.652c5.895 0 10.674 4.675 10.674 10.627v309.412c0 5.87-4.773 10.627-10.674 10.627h-234.652zM256 21.334c11.782 0 21.334 9.551 21.334 21.334s-9.551 21.334-21.334 21.334c-11.782 0-21.334-9.551-21.334-21.334s9.552-21.334 21.334-21.334z" />
<glyph unicode="&#xe621;" d="M495.291 426.666h-479.052c-8.931 0-16.239-7.44-16.239-16.534v-297.6c0-9.094 7.308-16.534 16.239-16.534h479.052c8.931 0 16.239 7.44 16.239 16.534v297.6c0 9.094-7.308 16.534-16.239 16.534v0zM202.667 53.334v42.666h106.667v-42.666h58.652c8.9 0 16.014-7.163 16.014-16 0-8.898-7.17-16-16.014-16h-223.972c-8.9 0-16.014 7.163-16.014 16 0 8.898 7.17 16 16.014 16h58.653zM479.901 128h-447.901v266.666h447.901v-266.666z" />
<glyph unicode="&#xe622;" d="M46.222 384c-7.822 0-14.222-6.456-14.222-14.346v-273.654h448v273.654c0 7.89-6.4 14.346-14.222 14.346h-419.555zM448 117.334h-384v234.666h384v-234.666zM16.026 96h479.947c8.788 0 16.026-7.163 16.026-16v0c0-8.898-7.175-16-16.026-16h-479.947c-8.789 0-16.026 7.163-16.026 16v0c0 8.898 7.176 16 16.026 16zM197.337 85.334c-2.947 0-5.337-2.474-5.337-5.334v0c0-2.945 2.442-5.334 5.337-5.334h117.326c2.947 0 5.337 2.474 5.337 5.334v0c0 2.945-2.442 5.334-5.337 5.334h-117.326z" />
<glyph unicode="&#xe623;" d="M345.752 138.666l22.662-22.662c4.071-4.071 4.131-10.885-0.034-15.050-4.195-4.195-10.904-4.181-15.050-0.034l-22.662 22.662-22.662-22.662c-4.071-4.071-10.885-4.131-15.050 0.034-4.195 4.195-4.181 10.904-0.034 15.050l22.662 22.662-22.662 22.662c-4.071 4.071-4.131 10.885 0.034 15.050 4.195 4.195 10.904 4.181 15.050 0.034l22.662-22.662 22.662 22.662c4.071 4.071 10.885 4.131 15.050-0.034 4.195-4.195 4.181-10.904 0.034-15.050l-22.662-22.662zM237.493 115.451l-68.117-48.466c-2.64-1.868-5.872-2.985-9.376-2.985-8.838 0-16 7.045-16 15.738 0 1.716 0.282 3.373 0.8 4.921l33.114 99.52-85.957 61.162c-4.010 2.864-6.624 7.512-6.624 12.758 0 8.687 7.162 15.738 16 15.738h106.41l32.954 99.048c2.011 6.432 8.096 11.116 15.302 11.116 7.2 0 13.29-4.684 15.296-11.116l32.954-99.048h106.416c8.837 0 16-7.050 16-15.738 0-5.246-2.613-9.894-6.624-12.753l-36.913-26.267c-15.079 9.858-33.101 15.589-52.461 15.589-53.019 0-96.001-42.98-96.001-96 0-8.005 0.98-15.782 2.826-23.216v0zM330.668 213.334c-41.238 0-74.668-33.428-74.668-74.666s33.43-74.667 74.668-74.667 74.666 33.428 74.666 74.667c0 41.238-33.428 74.666-74.666 74.666z" />
<glyph unicode="&#xe624;" d="M74.666 373.334c0-11.786 9.579-21.334 21.302-21.334h320.032c11.765 0 21.301 9.579 21.301 21.334 0 11.786-9.579 21.334-21.301 21.334h-320.032c-11.766 0-21.302-9.579-21.302-21.334zM74.666 224c0-11.786 9.579-21.334 21.302-21.334h319.637c11.765 0 21.301 9.579 21.301 21.334 0 11.786-9.579 21.334-21.301 21.334h-319.637c-11.766 0-21.302-9.578-21.302-21.334zM74.666 74.666c0-11.786 9.579-21.334 21.302-21.334h319.637c11.765 0 21.301 9.579 21.301 21.334 0 11.786-9.579 21.334-21.301 21.334h-319.637c-11.766 0-21.302-9.579-21.302-21.334z" />
<glyph unicode="&#xe625;" d="M198.079 224c-0.13-3.387 1.107-6.826 3.728-9.447l101.224-101.224c4.945-4.945 12.911-4.998 17.868-0.041 4.923 4.923 4.95 12.877-0.041 17.868l-92.844 92.844 92.844 92.844c4.99 4.99 4.964 12.945 0.041 17.868-4.957 4.957-12.923 4.905-17.868-0.041l-101.224-101.224c-2.621-2.621-3.858-6.060-3.728-9.447z" />
<glyph unicode="&#xe626;" d="M324.587 224c0.13-3.387-1.108-6.826-3.728-9.447l-101.224-101.224c-4.946-4.945-12.911-4.998-17.868-0.041-4.923 4.923-4.95 12.877 0.041 17.868l92.844 92.844-92.844 92.844c-4.99 4.99-4.964 12.945-0.041 17.868 4.958 4.957 12.923 4.905 17.868-0.041l101.224-101.224c2.621-2.621 3.858-6.060 3.728-9.447z" />
<glyph unicode="&#xe627;" d="M297.93 159.443c-17.7-13.058-39.579-20.776-63.262-20.776-58.911 0-106.666 47.757-106.666 106.666s47.757 106.666 106.666 106.666c58.911 0 106.666-47.757 106.666-106.666 0-23.683-7.719-45.563-20.776-63.262l63.967-63.967c6.154-6.154 6.215-16.346-0.034-22.594-6.292-6.292-16.364-6.264-22.594-0.034l-63.967 63.967zM234.667 170.666c41.237 0 74.667 33.43 74.667 74.666s-33.43 74.666-74.666 74.666c-41.238 0-74.666-33.43-74.666-74.666s33.429-74.666 74.666-74.666zM191.951 256c-5.864 0-10.618-4.734-10.618-10.666 0-5.891 4.861-10.666 10.618-10.666h85.431c5.864 0 10.618 4.734 10.618 10.666 0 5.891-4.861 10.666-10.618 10.666h-85.431z" />
<glyph unicode="&#xe628;" d="M370.838 338.010c-0.456 0.613-0.961 1.199-1.515 1.753l-7.53 7.53c-6.252 6.252-16.341 6.298-22.634 0.006-6.248-6.248-6.196-16.431 0.007-22.633l3.765-3.765c54.153-54.152 54.153-141.952 0-196.104l-3.765-3.765c-6.252-6.252-6.298-16.341-0.007-22.634 6.248-6.248 16.431-6.196 22.634 0.007l7.53 7.53c0.563 0.563 1.077 1.159 1.539 1.779v0c59.584 65.1 59.577 165.207-0.024 230.298zM318.772 284.141v0c-0.627 1.006-1.377 1.954-2.248 2.825l-7.53 7.53c-6.252 6.252-16.341 6.298-22.634 0.006-6.248-6.248-6.196-16.431 0.007-22.633l3.765-3.765c24.993-24.994 24.993-65.516 0-90.51l-3.765-3.765c-6.252-6.252-6.298-16.341-0.007-22.634 6.248-6.248 16.432-6.196 22.634 0.007l7.53 7.53c0.887 0.887 1.649 1.851 2.286 2.87v0c29.435 35.448 29.423 87.106-0.038 122.539zM224 337.197v0c11.776 0 21.334-9.547 21.334-21.334v-192c0-11.786-9.558-21.334-21.334-21.334-12.554 0-16.363 7.296-16.363 7.296s-32.65 35.872-55.136 51.702c-4.128 2.624-8.672 5.002-16.715 5.002h-18.453c-11.776 0-21.334 9.568-21.334 21.334v64c0 11.776 9.558 21.334 21.334 21.334h18.453c8.042 0 12.587 2.368 16.726 5.002 22.486 15.829 55.136 51.702 55.136 51.702s3.798 7.296 16.352 7.296zM256-32c-141.385 0-256 114.615-256 256s114.615 256 256 256c141.385 0 256-114.615 256-256s-114.615-256-256-256zM256 0c123.712 0 224 100.288 224 224s-100.288 224-224 224c-123.712 0-224-100.288-224-224s100.288-224 224-224z" />
<glyph unicode="&#xe629;" d="M256 252.4l84.895 55.787c4.913 3.234 11.105-0.757 11.105-7.161v-154.053c0-6.404-6.192-10.394-11.105-7.161l-84.895 55.777v-48.617c0-6.404-6.192-10.394-11.105-7.161l-111.232 73.080c-7.552 4.979-7.552 17.246 0 22.2l111.231 73.093c4.912 3.234 11.105-0.757 11.105-7.161v-48.626zM256 480c141.385 0 256-114.615 256-256s-114.615-256-256-256c-141.385 0-256 114.615-256 256s114.615 256 256 256zM256 448c-123.712 0-224-100.288-224-224s100.288-224 224-224c123.712 0 224 100.288 224 224s-100.288 224-224 224z" />
<glyph unicode="&#xe62a;" d="M256 195.6l-84.895-55.787c-4.912-3.234-11.105 0.757-11.105 7.161v154.053c0 6.404 6.192 10.394 11.105 7.161l84.895-55.777v48.616c0 6.404 6.192 10.394 11.105 7.161l111.231-73.081c7.552-4.979 7.552-17.247 0-22.2l-111.231-73.093c-4.913-3.234-11.105 0.757-11.105 7.161v48.627zM256-32c-141.385 0-256 114.615-256 256s114.615 256 256 256c141.385 0 256-114.615 256-256s-114.615-256-256-256zM256 0c123.712 0 224 100.288 224 224s-100.288 224-224 224c-123.712 0-224-100.288-224-224s100.288-224 224-224z" />
<glyph unicode="&#xe62b;" d="M342.955 42.666h140.016c16.041 0 29.029 10.678 29.029 23.868v346.931c0 13.189-12.988 23.868-29.029 23.868h-421.943c-16.041 0-29.029-10.678-29.029-23.868v-141.497c0-8.819 7.102-15.969 16-15.969 8.837 0 16 7.165 16 15.969v122.453c0 6.023 5.101 10.911 11.386 10.911h393.034c6.285 0 11.385-4.888 11.385-10.911v-308.844c0-6.023-5.101-10.911-11.385-10.911h-196.468c-8.81 0-15.952-7.102-15.952-16 0-8.837 7.248-16 15.952-16h71.003zM115.395 106.666l29.137-29.137c5.361-5.361 5.311-13.995-0.044-19.351-5.393-5.393-14.019-5.375-19.35-0.045l-29.137 29.137-29.137-29.137c-5.361-5.361-13.995-5.311-19.35 0.045-5.393 5.393-5.376 14.019-0.044 19.351l29.137 29.137-29.137 29.137c-5.361 5.361-5.311 13.995 0.044 19.351 5.393 5.393 14.019 5.375 19.35 0.045l29.137-29.137 29.137 29.137c5.361 5.361 13.995 5.311 19.35-0.045 5.393-5.393 5.375-14.019 0.044-19.351l-29.137-29.137zM96.001 202.666c-53.020 0-96.001-42.979-96.001-96s42.981-96 96.001-96 95.999 42.979 95.999 96c0 53.020-42.98 96-95.999 96z" />
<glyph unicode="&#xe62c;" d="M201.619 367.603c18.532 4.214 38.416-3.846 48.417-21.168 12.295-21.295 4.999-48.524-16.296-60.818s-48.524-4.998-60.818 16.296c-4.081 7.068-6.004 14.791-5.972 22.404 7.782-2.695 16.666-2.117 24.38 2.337 14.064 8.12 18.915 26.046 10.836 40.039-0.178 0.308-0.359 0.611-0.547 0.909zM233.739 192.48c-7.139-1.659-15.133-2.693-24.006-2.613-7.599 0.069-14.416 0.837-20.517 2.051v0-12.336c0-6.3-4.983-11.235-11.131-11.235-6.19 0-11.131 5.030-11.131 11.235v19.671c-18.061 8.57-24.407 18.592-24.407 9.273 0-22.107 7.261-62.017 36.923-78.336 4.107 9.193 16.882 15.896 32.006 15.896 14.374 0 26.626-6.055 31.333-14.548v0c28.692 17.077 37.597 55.467 37.597 76.988 0 8.127-7.861-0.156-24.407-8.12v-20.825c0-6.3-4.983-11.235-11.131-11.235-6.19 0-11.131 5.030-11.131 11.235v12.897zM332.846 13.219c-1.086-0.464-2.178-0.922-3.276-1.372v0l-6.57-32.852c-1.212-6.057-7.177-10.995-13.318-10.995h-11.154c-6.192 0-12.103 4.923-13.318 10.995l-3.668 18.341c-46.382-9.699-97.832-9.425-143.928 0.82l-3.832-19.16c-1.212-6.057-7.177-10.995-13.318-10.995h-11.153c-6.192 0-12.103 4.923-13.318 10.995l-6.733 33.662c-0.067 0.335-0.118 0.667-0.154 0.995v0c-52.109 22.581-89.106 61.511-89.106 116.791 0 131.531 46.889 245.537 115.376 301.546v0l-11.267 21.114c-2.872 5.383-1.153 12.615 3.856 16.122l-1.553-1.087c5.055 3.539 12.382 2.661 16.469-1.892l16.012-17.837c22.637 13.238 47.084 20.461 72.585 20.461 26.465 0 51.795-7.78 75.145-21.988l14.369 19.128c3.664 4.877 10.945 6.377 16.241 3.319l-1.642 0.948c5.344-3.085 7.644-10.098 5.245-15.725l-10.57-24.799c67.024-56.77 112.69-169.506 112.69-299.31 0-32.087-12.465-58.665-33.115-79.735 39.606 0.95 61.097 17.834 56.835 1.928-5.568-20.782-44.502-58-109.817-40.498-1.365 0.366-2.703 0.727-4.013 1.083v0zM211.478 246.261c43.030 0 77.913 34.883 77.913 77.913s-34.883 77.913-77.913 77.913c-43.030 0-77.913-34.883-77.913-77.913s34.883-77.913 77.913-77.913z" horiz-adv-x="457" />
<glyph unicode="&#xe62d;" d="M486.235 255.722v24.651c0 37.639-29.679 70.469-68.182 71.595-39.836 1.161-72.505-30.048-72.505-68.721v-27.49c0-4.294-3.506-7.416-7.852-7.99-9.989-1.314-17.697-9.68-17.697-19.817v-111.957c0-11.041 9.161-19.993 20.458-19.993h151.083c11.298 0 20.458 8.952 20.458 19.993v111.957c0 10.078-8.008 18.409-17.997 19.805-4.31 0.599-7.768 3.708-7.768 7.967zM417.657 319.468c19.69-0.997 34.445-18.268 34.445-37.522v-25.285c0-4.81-3.998-8.706-8.909-8.706h-54.976c-4.923 0-8.909 3.895-8.909 8.706v27.291c0 20.286 17.361 36.595 38.347 35.516z" />
<glyph unicode="&#xe62e;" d="M394.666 341.333c64.805 0 117.334-52.529 117.334-117.333s-52.529-117.334-117.334-117.334v234.666zM394.666 106.666c-64.805 0-117.334 52.529-117.334 117.334s52.529 117.334 117.334 117.334c64.805 0 117.334-52.529 117.334-117.334s-52.529-117.334-117.334-117.334v0zM394.666 138.666c47.128 0 85.334 38.205 85.334 85.334s-38.205 85.334-85.334 85.334c-47.128 0-85.334-38.205-85.334-85.334s38.205-85.334 85.334-85.334v0z" />
<glyph unicode="&#xe62f;" d="M394.666 106.666c-64.805 0-117.334 52.529-117.334 117.334s52.529 117.334 117.334 117.334c64.805 0 117.334-52.529 117.334-117.334s-52.529-117.334-117.334-117.334v0z" />
<glyph unicode="&#xe630;" d="M32.028 437.334h447.944c17.8 0 32.028-14.334 32.028-32.014v-287.971c0-17.779-14.339-32.014-32.028-32.014h-447.944c-17.799 0-32.028 14.334-32.028 32.014v287.971c0 17.779 14.339 32.014 32.028 32.014zM106.666 117.334v-32h298.666v32h-298.666zM42.633 405.334c-5.872 0-10.633-4.759-10.633-10.591v-266.817c0-5.849 4.728-10.591 10.633-10.591h426.736c5.872 0 10.632 4.759 10.632 10.591v266.817c0 5.849-4.728 10.591-10.632 10.591h-426.736zM238.936 186.608c9.424 14.946 24.687 14.971 34.127 0l93.873-148.878c9.424-14.946 2.752-27.062-14.841-27.062h-192.19c-17.62 0-24.281 12.091-14.841 27.062l93.873 148.879zM106.666 117.334v-32h26.658c8.841 0 16.009 7.102 16.009 16v0c0 8.837-7.238 16-16.009 16h-26.658zM378.675 117.334c-8.841 0-16.009-7.102-16.009-16v0c0-8.837 7.238-16 16.009-16h26.658v32h-26.658z" />
<glyph unicode="&#xe631;" d="M289.269 383.868c-17.838 23.627-44.084 37.464-72.553 37.464-33.054 0-63.221-18.738-80.574-49.771-22.243-39.753-16.213-87.89 16.159-141.831 7.745-12.382 10.165-20.865 8.996-24.687-1.333-4.361-9.662-10.022-26.523-17.223-1.863-0.796-3.349-1.418-6.761-2.837-2.794-1.163-4.066-1.695-5.585-2.337-9.822-4.154-16.153-7.246-21.987-11.070-32.469-21.257-49.814-43.283-57.211-79.074-2.755-13.354 4.855-26.652 17.487-30.552 6.272-1.935 18.299-4.439 37.221-6.826 7.323-0.923 15.174-1.757 23.57-2.49 0.046 0.418 0.114 0.838 0.204 1.258 2.187 10.132 5.312 18.916 9.277 26.692-10.796 0.836-20.688 1.834-29.709 2.972-10.177 1.284-18.494 2.658-25.083 4.029-3.942 0.82-6.416 1.454-7.585 1.815 1.195-0.368 1.915-1.628 1.656-2.887 5.657 27.377 18.267 43.387 44.951 60.858 4.109 2.693 9.245 5.202 17.662 8.762 1.453 0.615 2.667 1.122 5.438 2.275 3.487 1.45 5.024 2.094 6.993 2.935 24.772 10.579 37.506 19.235 42.344 35.052 4.254 13.907-0.352 30.052-12.012 48.686-27.326 45.537-31.993 82.787-15.578 112.123 12.5 22.353 33.648 35.49 56.651 35.49 15.706 0 30.499-6.085 42.289-17.041 9.423 4.605 19.644 7.423 30.264 8.217zM357.42 152.502c-3.905 3.693-8.167 7.267-12.808 10.777 3.026-4.055 7.518-7.594 12.808-10.777zM469.060 53.894c-7.868 36.446-27.878 55.452-55.495 72.757-7.668 4.819-17.276 8.64-27.443 12.707-18.88 7.519-40.282 16.035-44.781 30.135-2.945 9.244 0.87 22.050 11.485 38.282 32.389 51.68 38.182 96.076 17.202 131.991-16.219 27.769-44.010 44.334-74.536 44.334-30.438 0-58.316-16.565-74.536-44.334-20.993-35.916-15.201-80.311 17.314-132.176 10.465-16.010 14.281-28.817 11.335-38.036-4.512-14.125-25.964-22.654-44.88-30.185-10.204-4.067-19.837-7.888-27.517-12.707-27.63-17.317-47.627-36.322-55.495-72.769-1.355-6.286 2.386-12.547 8.601-14.384 1.752-0.517 44.433-12.769 165.13-12.843h0.012c120.697 0.074 163.253 12.325 165.005 12.843 6.214 1.837 9.943 8.098 8.601 14.384z" />
<glyph unicode="&#xe632;" d="M330.666 362.666v-32.074c0-23.528 19.103-42.593 42.666-42.593 23.516 0 42.666 19.070 42.666 42.593v32.074h21.264c17.752 0 32.070-14.334 32.070-32.014v-287.971c0-17.779-14.358-32.014-32.070-32.014h-362.528c-17.752 0-32.069 14.334-32.069 32.014v287.971c0 17.779 14.358 32.014 32.069 32.014h21.264v-32.073c0-23.528 19.103-42.593 42.666-42.593 23.516 0 42.666 19.070 42.666 42.593v32.073h149.334zM80.104 256c-5.948 0-10.77-4.857-10.77-10.579v-192.175c0-5.842 4.721-10.579 10.77-10.579h351.793c5.949 0 10.771 4.856 10.771 10.579v192.175c0 5.843-4.721 10.579-10.771 10.579h-351.793zM117.334 415.909c0 11.832 9.469 21.425 21.334 21.425 11.782 0 21.333-9.621 21.333-21.425v-85.151c0-11.833-9.469-21.425-21.334-21.425-11.782 0-21.334 9.621-21.334 21.425v85.151zM352 415.909c0 11.832 9.469 21.425 21.334 21.425 11.782 0 21.334-9.621 21.334-21.425v-85.151c0-11.833-9.469-21.425-21.334-21.425-11.782 0-21.334 9.621-21.334 21.425v85.151z" />
<glyph unicode="&#xe633;" d="M42.666 411.531c0 14.258 11.544 25.803 25.803 25.803h375.060c14.259 0 25.803-11.545 25.803-25.803v-375.060c0-14.259-11.544-25.803-25.803-25.803h-375.060c-14.258 0-25.803 11.544-25.803 25.803v375.060zM85.324 405.334c-5.886 0-10.657-4.853-10.657-10.658v-341.351c0-5.886 4.853-10.658 10.657-10.658h341.351c5.886 0 10.658 4.853 10.658 10.658v341.351c0 5.886-4.853 10.657-10.658 10.657h-341.351zM144.014 202.666c-8.845 0-16.014-7.102-16.014-16v0c0-8.837 7.114-16 16.014-16h223.972c8.844 0 16.014 7.102 16.014 16v0c0 8.837-7.114 16-16.014 16h-223.972zM143.952 128c-8.81 0-15.953-7.102-15.953-16v0c0-8.837 7.248-16 15.953-16h96.095c8.81 0 15.953 7.102 15.953 16v0c0 8.837-7.249 16-15.952 16h-96.095zM144.014 352c-8.845 0-16.014-7.164-16.014-15.969v-74.728c0-8.82 7.114-15.969 16.014-15.969h223.972c8.844 0 16.014 7.165 16.014 15.969v74.728c0 8.82-7.114 15.969-16.014 15.969h-223.972z" />
<glyph unicode="&#xe634;" d="M256-32c-141.384 0-256 114.608-256 256 0 141.384 114.616 256 256 256s256-114.616 256-256c0-141.392-114.616-256-256-256zM256 448c-123.709 0-224-100.291-224-224 0-123.717 100.291-224 224-224s224 100.283 224 224c0 123.709-100.291 224-224 224zM256 362.666c-11.782 0-21.334-9.581-21.334-21.235v-170.863c0-11.728 9.469-21.235 21.334-21.235v0c11.782 0 21.334 9.581 21.334 21.235v170.863c0 11.728-9.469 21.235-21.334 21.235v0zM256 74.666c11.782 0 21.334 9.551 21.334 21.334s-9.551 21.334-21.334 21.334c-11.782 0-21.334-9.551-21.334-21.334s9.552-21.334 21.334-21.334z" />
<glyph unicode="&#xe635;" d="M65.454 106.178l-10.62-74.341c-0.832-5.825 3.202-9.832 9.003-9.003l74.341 10.62c34.228-21.209 74.595-33.454 117.822-33.454 123.712 0 224 100.288 224 224s-100.288 224-224 224c-123.712 0-224-100.288-224-224 0-43.227 12.245-83.594 33.454-117.822zM34.593 95.406c-21.994 37.788-34.593 81.719-34.593 128.594 0 141.385 114.615 256 256 256s256-114.615 256-256c0-141.385-114.615-256-256-256-46.874 0-90.805 12.598-128.594 34.592l-95.4-11.925c-5.895-0.737-10.091 3.327-9.34 9.34l11.925 95.399zM236.345 204.345c25.335-25.334 54.672-49.551 66.266-37.954 16.605 16.601 26.841 31.062 63.44 1.648 36.601-29.427 8.49-49.033-7.594-65.123-18.56-18.557-87.748-0.976-156.135 67.4-68.378 68.392-85.972 137.579-67.399 156.145 16.087 16.086 35.693 44.188 65.108 7.584 29.421-36.589 14.966-46.828-1.642-63.433-11.59-11.596 12.621-40.931 37.956-66.268z" />
<glyph unicode="&#xe636;" d="M256-32c-141.384 0-256 114.608-256 256 0 141.384 114.616 256 256 256s256-114.616 256-256c0-141.392-114.616-256-256-256zM256 448c-123.709 0-224-100.291-224-224 0-123.717 100.291-224 224-224s224 100.283 224 224c0 123.709-100.291 224-224 224z" />
<glyph unicode="&#xe637;" d="M256-32c-141.384 0-256 114.608-256 256 0 141.384 114.616 256 256 256s256-114.616 256-256c0-141.392-114.616-256-256-256zM256 448c-123.709 0-224-100.291-224-224 0-123.717 100.291-224 224-224s224 100.283 224 224c0 123.709-100.291 224-224 224zM133.353 255.267c-17.675 0-31.998-14.326-31.998-32s14.323-32 31.998-32c17.675 0 32.002 14.326 32.002 32s-14.327 32-32.002 32z" />
<glyph unicode="&#xe638;" d="M256-32c-141.384 0-256 114.608-256 256 0 141.384 114.616 256 256 256s256-114.616 256-256c0-141.392-114.616-256-256-256zM256 448c-123.709 0-224-100.291-224-224 0-123.717 100.291-224 224-224s224 100.283 224 224c0 123.709-100.291 224-224 224zM250.686 255.267c-17.675 0-31.998-14.326-31.998-32s14.323-32 31.998-32c17.675 0 32.002 14.326 32.002 32s-14.327 32-32.002 32zM133.353 255.267c-17.675 0-31.998-14.326-31.998-32s14.323-32 31.998-32c17.675 0 32.002 14.326 32.002 32s-14.327 32-32.002 32z" />
<glyph unicode="&#xe639;" d="M256-32c-141.384 0-256 114.608-256 256 0 141.384 114.616 256 256 256s256-114.616 256-256c0-141.392-114.616-256-256-256zM256 448c-123.709 0-224-100.291-224-224 0-123.717 100.291-224 224-224s224 100.283 224 224c0 123.709-100.291 224-224 224zM250.686 255.267c-17.675 0-31.998-14.326-31.998-32s14.323-32 31.998-32c17.675 0 32.002 14.326 32.002 32s-14.327 32-32.002 32zM378.687 255.267c-17.675 0-31.998-14.326-31.998-32s14.323-32 31.998-32c17.675 0 32.002 14.326 32.002 32s-14.327 32-32.002 32zM133.353 255.267c-17.675 0-31.998-14.326-31.998-32s14.323-32 31.998-32c17.675 0 32.002 14.326 32.002 32s-14.327 32-32.002 32z" />
<glyph unicode="&#xe63a;" d="M256-32c-141.384 0-256 114.608-256 256 0 141.384 114.616 256 256 256s256-114.616 256-256c0-141.392-114.616-256-256-256zM256 448c-123.709 0-224-100.291-224-224 0-123.717 100.291-224 224-224s224 100.283 224 224c0 123.709-100.291 224-224 224zM326.235 266.389v24.651c0 37.639-29.679 70.469-68.182 71.595-39.836 1.162-72.505-30.048-72.505-68.72v-27.49c0-4.295-3.506-7.416-7.852-7.99-9.989-1.314-17.697-9.68-17.697-19.817v-111.957c0-11.041 9.161-19.993 20.458-19.993h151.083c11.298 0 20.458 8.952 20.458 19.993v111.957c0 10.078-8.008 18.409-17.997 19.805-4.31 0.599-7.768 3.707-7.768 7.967zM257.657 330.135c19.69-0.998 34.445-18.269 34.445-37.523v-25.285c0-4.81-3.998-8.706-8.909-8.706h-54.976c-4.923 0-8.909 3.896-8.909 8.706v27.291c0 20.286 17.361 36.596 38.347 35.516z" />
<glyph unicode="&#xe63b;" d="M4.689 432.694c2.88 2.873 6.852 4.639 11.238 4.639h128.148c8.845 0 15.927-7.163 15.927-16 0-8.898-7.131-16-15.927-16h-112.073v-112.074c0-8.845-7.163-15.927-16-15.927-8.898 0-16 7.131-16 15.927v128.148c0 4.41 1.781 8.382 4.662 11.256zM507.312 432.694c-2.88 2.873-6.852 4.639-11.238 4.639h-128.147c-8.845 0-15.926-7.163-15.926-16 0-8.898 7.13-16 15.926-16h112.073v-112.074c0-8.845 7.163-15.927 16-15.927 8.898 0 16 7.131 16 15.927v128.148c0 4.41-1.781 8.382-4.662 11.256l-0.026 0.031zM4.689 15.306c2.88-2.873 6.852-4.639 11.238-4.639h128.148c8.845 0 15.927 7.163 15.927 16 0 8.898-7.131 16-15.927 16h-112.073v112.074c0 8.845-7.163 15.926-16 15.926-8.898 0-16-7.13-16-15.926v-128.148c0-4.41 1.781-8.382 4.662-11.256l0.027-0.031zM507.312 15.306c-2.88-2.873-6.852-4.639-11.238-4.639h-128.147c-8.845 0-15.926 7.163-15.926 16 0 8.898 7.13 16 15.926 16h112.073v112.074c0 8.845 7.163 15.926 16 15.926 8.898 0 16-7.13 16-15.926v-128.148c0-4.41-1.781-8.382-4.662-11.256l-0.026-0.031zM106.666 352h298.666c5.891 0 10.666-4.775 10.666-10.666v-234.666c0-5.891-4.776-10.666-10.666-10.666h-298.666c-5.891 0-10.666 4.776-10.666 10.666v234.667c0 5.891 4.775 10.666 10.666 10.666z" />
<glyph unicode="&#xe63c;" d="M356.688 166.027c2.88 2.873 6.852 4.639 11.238 4.639h128.147c8.845 0 15.927-7.163 15.927-16 0-8.898-7.13-16-15.926-16h-112.074v-112.074c0-8.845-7.163-15.926-16-15.926-8.898 0-16 7.13-16 15.926v128.148c0 4.41 1.781 8.382 4.662 11.256zM155.311 166.027c-2.88 2.873-6.852 4.639-11.238 4.639h-128.148c-8.845 0-15.927-7.163-15.927-16 0-8.898 7.13-16 15.927-16h112.073v-112.074c0-8.845 7.163-15.926 16-15.926 8.898 0 16 7.13 16 15.926v128.148c0 4.41-1.781 8.382-4.662 11.256l-0.026 0.031zM356.688 281.972c2.88-2.873 6.852-4.639 11.238-4.639h128.147c8.845 0 15.927 7.163 15.927 16 0 8.898-7.13 16-15.926 16h-112.074v112.074c0 8.845-7.163 15.926-16 15.926-8.898 0-16-7.13-16-15.926v-128.147c0-4.41 1.781-8.382 4.662-11.256l0.026-0.031zM155.311 281.972c-2.88-2.873-6.852-4.639-11.238-4.639h-128.148c-8.845 0-15.927 7.163-15.927 16 0 8.898 7.13 16 15.927 16h112.073v112.074c0 8.845 7.163 15.926 16 15.926 8.898 0 16-7.13 16-15.926v-128.147c0-4.41-1.781-8.382-4.662-11.256l-0.026-0.031zM202.667 277.333h106.667c5.891 0 10.666-4.775 10.666-10.666v-85.334c0-5.891-4.776-10.666-10.666-10.666h-106.666c-5.891 0-10.666 4.776-10.666 10.666v85.334c0 5.891 4.775 10.666 10.666 10.666z" />
<glyph unicode="&#xe63d;" d="M385.227 242.048c12.587-8.091 12.587-28.026 0-36.075l-185.386-118.776c-8.188-5.255-18.508 1.231-18.508 11.635v250.336c0 10.405 10.321 16.89 18.508 11.635l185.386-118.755z" />
<glyph unicode="&#xe63e;" d="M165.333 362.666c-8.837 0-16-7.134-16-15.906v-245.52c0-8.785 7.102-15.906 16-15.906 8.837 0 16 7.134 16 15.906v245.52c0 8.785-7.102 15.907-16 15.907zM346.666 362.666c-8.837 0-16-7.134-16-15.906v-245.52c0-8.785 7.102-15.906 16-15.906 8.837 0 16 7.134 16 15.906v245.52c0 8.785-7.102 15.907-16 15.907z" />
<glyph unicode="&#xe63f;" d="M334.039 258.366v26.706c0 40.776-32.976 76.341-75.758 77.562-44.262 1.258-80.56-32.553-80.56-74.448v-29.781c0-4.652-3.895-8.033-8.725-8.656-11.099-1.423-19.663-10.487-19.663-21.469v-121.286c0-11.961 10.179-21.659 22.732-21.659h167.87c12.553 0 22.731 9.699 22.731 21.659v121.286c0 10.918-8.898 19.944-19.997 21.456-4.789 0.649-8.631 4.017-8.631 8.631zM257.841 327.423c21.877-1.081 38.272-19.791 38.272-40.649v-27.392c0-5.212-4.442-9.431-9.899-9.431h-61.084c-5.47 0-9.899 4.22-9.899 9.431v29.565c0 21.977 19.29 39.645 42.608 38.476z" />
</font>
</defs>
</svg>
